<?xml version="1.0" encoding="UTF-8" standalone="no"?>
<!DOCTYPE svg PUBLIC "-//W3C//DTD SVG 1.1//EN" "http://www.w3.org/Graphics/SVG/1.1/DTD/svg11.dtd">
<svg width="100%" height="100%" viewBox="0 0 32 32" version="1.1" xmlns="http://www.w3.org/2000/svg" xmlns:xlink="http://www.w3.org/1999/xlink" xml:space="preserve" xmlns:serif="http://www.serif.com/" style="fill-rule:evenodd;clip-rule:evenodd;stroke-linejoin:round;stroke-miterlimit:2;">
    <rect x="0" y="0" width="32" height="32" style="fill:white;"/>
    <g transform="matrix(0.1,0,0,-0.1,0,32)">
        <path d="M103,279C61,267 41,236 34,174C21,71 80,10 178,25C211,30 220,35 216,47C213,55 210,63 210,65C210,66 190,65 165,62C131,59 115,62 101,74C62,109 70,218 112,241C123,247 148,250 167,247C192,243 203,245 207,256C210,264 211,272 209,274C197,284 131,287 103,279Z" style="fill-rule:nonzero;"/>
        <path d="M158,157C155,123 154,94 155,92C157,90 186,103 220,120L283,152L253,170C236,180 209,195 192,204L162,219L158,157Z" style="fill-rule:nonzero;"/>
    </g>
</svg>
